<?xml version="1.0" encoding="utf-8"?>
<!-- Generator: Adobe Illustrator 22.0.1, SVG Export Plug-In . SVG Version: 6.00 Build 0)  -->
<svg version="1.1" id="Capa_1" xmlns="http://www.w3.org/2000/svg" xmlns:xlink="http://www.w3.org/1999/xlink" x="0px" y="0px"
	 viewBox="0 0 221.7 221.7" style="enable-background:new 0 0 221.7 221.7;" xml:space="preserve">
<style type="text/css">
	.st0{fill:#F4EBDC;}
</style>
<path class="st0" d="M180.1,172.2l-4.6-7.7c-8.3-13.7-19.8-29.4-34.8-29.4c-2.8,0-5.6,0.6-8.3,1.7l-8.1,3.5c-0.7,0.3-1.5,0.7-2.2,1
	c-2.1,1-4.4,2.1-6.8,2.1c-5.9,0-12.8-7.7-19.4-21.8c-6.4-13.8-6-21-4.6-24.7c1.6-4,5.4-5.7,9.5-7.3c0.6-0.2,1.1-0.4,1.6-0.6l8.2-3.4
	c21.3-8.9,13.4-40.1,10.8-50.3l-2.2-8.8C117.3,19.2,112.3,0,95.7,0c-3.1,0-6.3,0.7-9.7,2.1C83.7,3,53.2,15.5,42.1,37.4
	c-13.2,26.1-10.8,61.1,7.3,104c17.9,42.9,41.2,69.2,69.1,78.1c4.8,1.5,10.2,2.3,16.1,2.3c0,0,0,0,0,0c19.3,0,38.3-8.2,39.8-8.9
	c6.6-2.8,10.9-7.1,12.8-12.7C190.2,190.6,185,180.2,180.1,172.2z M172.8,195.5c-0.4,1.3-1.9,2.5-4.4,3.5c0,0-0.1,0-0.1,0.1
	c-0.2,0.1-17.4,7.6-33.8,7.6c-4.3,0-8.2-0.5-11.5-1.6c-23.5-7.5-43.6-30.9-59.8-69.6c-16.3-38.7-18.9-69.4-7.7-91.4
	c8.7-17.1,35.8-28,36-28.1c0.1,0,0.1,0,0.2-0.1c1.5-0.6,2.9-1,4-1c3.3,0,6.3,5.1,8.9,15.2l2.2,8.7c4.7,18.6,4,30.2-2,32.8l-8.1,3.4
	c-0.3,0.1-0.7,0.3-1.1,0.4c-4.5,1.7-13.9,5.2-18.1,15.7c-3.8,9.4-2.3,21.4,4.9,36.7c9.6,20.5,20.4,30.5,33,30.5
	c5.9,0,10.6-2.3,13.4-3.7c0.5-0.3,1-0.5,1.5-0.7l8.1-3.5c0.8-0.3,1.6-0.5,2.5-0.5c3.9,0,10.9,3.9,22,22.2l4.6,7.7
	C173,189.3,173.4,193.6,172.8,195.5z"/>
</svg>
