<?xml version="1.0" encoding="utf-8"?>
<!-- Generator: Adobe Illustrator 22.0.1, SVG Export Plug-In . SVG Version: 6.00 Build 0)  -->
<svg version="1.1" id="레이어_1" xmlns="http://www.w3.org/2000/svg" xmlns:xlink="http://www.w3.org/1999/xlink" x="0px"
	 y="0px" viewBox="0 0 155 27" style="enable-background:new 0 0 155 27;" xml:space="preserve">
<style type="text/css">
	.st0{display:none;}
	.st1{display:inline;}
	.st2{fill:#FFB71B;}
	.st3{fill:#00953B;}
	.st4{fill:#002D74;}
	.st5{opacity:0.5;}
	.st6{fill:#FFFFFF;}
</style>
<g id="Layer_1" class="st0">
	<g class="st1">
		<g>
			<polygon class="st2" points="0.2,27 30.8,27 15.9,0.3 			"/>
			<polygon class="st3" points="3.8,27 34.4,27 19.6,0.3 			"/>
		</g>
		<g>
			<g>
				<polygon class="st4" points="51.5,8.1 43.5,8.1 43.5,1.5 39.8,1.5 39.8,18.5 43.5,18.5 43.5,11.4 51.5,11.4 51.5,18.5 
					55.2,18.5 55.2,1.5 51.5,1.5 				"/>
				<path class="st4" d="M132.7,2.4c-0.8,0.8-0.8,2-0.8,2.7v13.4h3.7v-5.4h7.9v5.4h3.8V1.5h-11.7C134.5,1.5,133.5,1.6,132.7,2.4z
					 M136.5,4.8h7v4.9h-7.9v-4c0-0.2,0-0.6,0.1-0.8C135.9,4.8,136.2,4.8,136.5,4.8z"/>
				<path class="st4" d="M106.2,1.5H94.6v17.1h3.7V4.8h7c0.3,0,0.6,0,0.8,0.2c0.2,0.2,0.1,0.6,0.2,0.8v12.8h3.7V5.1
					c0-0.7-0.1-1.8-0.8-2.7C108.4,1.6,107.3,1.5,106.2,1.5z"/>
				<path class="st4" d="M87.5,14.2c0,0.2,0,0.5-0.2,0.8c-0.2,0.2-0.5,0.2-0.8,0.2h-7V1.5h-3.7v17.1h11.7c1.1,0,2.2-0.2,2.9-1
					c0.8-0.8,0.8-2,0.8-2.7V1.5h-3.7V14.2z"/>
				<path class="st4" d="M128.8,5.1c0-0.7-0.1-1.8-0.8-2.7c-0.8-0.8-1.8-1-2.9-1H117h-3.7v17.1H125c1.1,0,2.1-0.2,2.9-1
					c0.8-0.8,0.8-2,0.8-2.7V5.1z M125,14.2c0,0.2,0,0.5-0.1,0.8c-0.2,0.2-0.5,0.2-0.8,0.2h-7V4.8h7c0.3,0,0.6,0,0.8,0.2
					c0.2,0.2,0.1,0.6,0.1,0.8V14.2z"/>
				<polygon class="st4" points="65.5,8.9 61,1.5 56.5,1.5 63.5,12.2 63.5,18.5 67.5,18.5 67.5,12.2 74.5,1.5 70.1,1.5 				"/>
				<rect x="151" y="1.5" class="st4" width="4" height="17.1"/>
			</g>
			<g>
				<g>
					<rect x="54.8" y="22.2" class="st4" width="1.1" height="4.8"/>
					<rect x="76.6" y="22.2" class="st4" width="1.1" height="4.8"/>
					<polygon class="st4" points="47.7,27 45.5,23.7 45.5,27 44.5,27 44.5,22.2 45.6,22.2 47.7,25.6 47.7,22.2 48.7,22.2 48.7,27 
											"/>
					<polygon class="st4" points="59.9,27 57.7,23.7 57.7,27 56.7,27 56.7,22.2 57.8,22.2 59.9,25.6 59.9,22.2 60.9,22.2 60.9,27 
											"/>
					<polygon class="st4" points="81.7,27 79.5,23.7 79.5,27 78.5,27 78.5,22.2 79.6,22.2 81.8,25.6 81.8,22.2 82.8,22.2 82.8,27 
											"/>
					<path class="st4" d="M39.7,26.1h3.9V27h-3.9V26.1z M39.7,22.2h3.9v0.9h-3.9V22.2 M43.3,25.1h-2.5V27h-1v-4.8h1v2h2.5L43.3,25.1
						"/>
					<path class="st4" d="M61.8,26.1h3.9V27h-3.9C61.8,27,61.8,26.1,61.8,26.1z M61.8,22.2h3.9v0.9h-3.9L61.8,22.2 M65.3,25.1h-2.5
						V27h-1v-4.8h1v2h2.5V25.1"/>
					<path class="st4" d="M66.6,26.1h3.9V27h-3.9V26.1z M66.6,22.2h3.9v0.9h-3.9V22.2 M70.1,25.1h-2.5V27h-1v-4.8h1v2h2.5V25.1"/>
					<path class="st4" d="M50.6,27c-0.7,0-1.1-0.4-1.1-1.1v-2.7c0-0.7,0.3-1.1,1.1-1.1h3.1v0.9h-2.8c-0.2,0-0.3,0.1-0.3,0.3v2.4
						c0,0.2,0.1,0.3,0.3,0.3h1.7c0.2,0,0.3-0.1,0.3-0.3V25h-1.2v-0.9h2.2v1.8c0,0.7-0.3,1-1,1.1L50.6,27L50.6,27z"/>
					<path class="st4" d="M84.7,27c-0.7,0-1.1-0.4-1.1-1.1v-2.7c0-0.7,0.3-1.1,1.1-1.1h3.1v0.9h-2.8c-0.2,0-0.3,0.1-0.3,0.3v2.4
						c0,0.2,0.1,0.3,0.3,0.3h1.7c0.2,0,0.3-0.1,0.3-0.3V25h-1.2v-0.9h2.2v1.8c0,0.7-0.3,1-1,1.1L84.7,27L84.7,27z"/>
					<path class="st4" d="M74.8,25.3l1.1,1.7h-1.1l-1.1-1.7H74.8z M74.5,24.3v-0.9c0-0.2-0.1-0.3-0.3-0.3h-1.8v1.4h1.8
						C74.4,24.6,74.5,24.5,74.5,24.3 M75.5,24.5c0,0.7-0.3,1.1-1.1,1.1h-2.1V27h-1.1v-4.8h3.1c0.7,0,1.1,0.4,1.1,1.1V24.5"/>
				</g>
				<g>
					<rect x="143.6" y="22.2" class="st4" width="1.1" height="4.8"/>
					<polygon class="st4" points="111.6,27 109.4,23.7 109.4,27 108.4,27 108.4,22.2 109.5,22.2 111.7,25.6 111.7,22.2 112.7,22.2 
						112.7,27 					"/>
					<path class="st4" d="M102.4,27h-2.8c-0.7,0-1.1-0.4-1.1-1.1v-2.7c0-0.7,0.3-1.1,1.1-1.1h2.8v0.9h-2.6c-0.2,0-0.3,0.1-0.3,0.3
						v2.4c0,0.2,0.1,0.3,0.3,0.3h2.6L102.4,27L102.4,27z"/>
					<path class="st4" d="M137.6,27h-2.8c-0.7,0-1.1-0.4-1.1-1.1v-2.7c0-0.7,0.4-1.1,1.1-1.1h2.8v0.9H135c-0.2,0-0.3,0.1-0.3,0.3
						v2.4c0,0.2,0.1,0.3,0.3,0.3h2.6L137.6,27L137.6,27z"/>
					<path class="st4" d="M106.3,23.2h-1.7c-0.2,0-0.3,0.1-0.3,0.3v2.4c0,0.2,0.1,0.3,0.3,0.3h1.7c0.2,0,0.3-0.1,0.3-0.3v-2.4
						C106.5,23.3,106.4,23.2,106.3,23.2z M104.3,22.2h2.3c0.7,0,1.1,0.4,1.1,1.1v2.6c0,0.7-0.3,1.1-1.1,1.1h-2.3
						c-0.7,0-1.1-0.4-1.1-1.1v-2.6C103.2,22.6,103.6,22.2,104.3,22.2"/>
					<polygon class="st4" points="153.9,27 151.8,23.7 151.8,27 150.8,27 150.8,22.2 151.8,22.2 154,25.6 154,22.2 155,22.2 155,27 
											"/>
					<path class="st4" d="M148.6,23.2h-1.7c-0.2,0-0.3,0.1-0.3,0.3v2.4c0,0.2,0.1,0.3,0.3,0.3h1.7c0.2,0,0.3-0.1,0.3-0.3v-2.4
						C148.9,23.3,148.8,23.2,148.6,23.2z M146.6,22.2h2.3c0.7,0,1.1,0.4,1.1,1.1v2.7c0,0.7-0.4,1.1-1.1,1.1h-2.3
						c-0.7,0-1.1-0.4-1.1-1.1v-2.7C145.5,22.6,145.9,22.2,146.6,22.2"/>
					<path class="st4" d="M127,25.3L128,27h-1.1l-1.1-1.7H127z M126.7,24.3v-0.9c0-0.2-0.1-0.3-0.3-0.3h-1.8v1.4h1.8
						C126.6,24.6,126.7,24.5,126.7,24.3 M127.7,24.5c0,0.7-0.3,1.1-1.1,1.1h-2.1V27h-1.1v-4.8h3.1c0.7,0,1.1,0.4,1.1,1.1V24.5"/>
					<path class="st4" d="M113.7,27v-0.9h2.8c0.2,0,0.3-0.1,0.3-0.3v-0.5c0-0.2-0.1-0.3-0.3-0.3h-2v-0.9h2.3c0.7,0,1,0.3,1,1v0.8
						c0,0.7-0.3,1.1-1.1,1.1C116.8,27,113.7,27,113.7,27z M117.6,22.2v0.9h-2.7c-0.2,0-0.3,0.1-0.3,0.3v0.5c0,0.2,0.1,0.3,0.3,0.3h2
						v0.9h-2.3c-0.7,0-1-0.3-1-1v-0.8c0-0.7,0.3-1.1,1.1-1.1H117.6"/>
					<polygon class="st4" points="118.4,22.2 120.6,22.2 122.7,22.2 122.7,23.2 121.1,23.2 121.1,27 120.6,27 120.1,27 120.1,23.2 
						118.4,23.2 					"/>
					<polygon class="st4" points="138.4,22.2 140.6,22.2 142.8,22.2 142.8,23.2 141.1,23.2 141.1,27 140.6,27 140.1,27 140.1,23.2 
						138.4,23.2 					"/>
					<path class="st4" d="M131.8,25.8v-3.6h1.1V26c0,0.7-0.4,1-1.1,1h-2.2c-0.7,0-1.1-0.4-1.1-1v-3.7h1.1v3.6c0,0.2,0.1,0.3,0.3,0.3
						h1.6C131.7,26.1,131.8,26,131.8,25.8"/>
				</g>
				<path class="st4" d="M94.5,25.7l0.7-0.8l-0.7-0.6L93.9,25l-1.4-1.5v-0.3c0,0,0,0,0.1,0h0.6c0,0,0.1,0,0.1,0v0.6h1v-0.7
					c0-0.7-0.4-0.9-0.8-0.9h-1.1c-0.5,0-0.8,0.3-0.8,0.8v0.5c0,0.3,0.1,0.6,0.3,0.8l0,0l-0.5,0.4c-0.3,0.2-0.4,0.5-0.4,0.8V26
					c0,0.8,0.5,1,0.9,1h1c0.3,0,0.6-0.1,0.8-0.3l0.2-0.3l0.6,0.6h1.3L94.5,25.7z M93.2,25.7L92.9,26c-0.1,0-0.1,0.1-0.2,0.1h-0.7
					C92,26.1,92,26,92,26v-0.4c0-0.1,0-0.1,0.1-0.2l0.4-0.3L93.2,25.7z"/>
			</g>
		</g>
	</g>
</g>
<g id="Layer_2" class="st5">
	<g>
		<g>
			<polygon class="st6" points="20.3,0.2 18,4.2 4.6,26.8 4.6,26.8 30.5,26.8 35,26.8 			"/>
			<polygon class="st6" points="15.8,0.2 0.1,26.8 3.1,26.8 17.2,2.9 			"/>
		</g>
		<g>
			<g>
				<polygon class="st6" points="51.9,8 44,8 44,1.4 40.3,1.4 40.3,18.4 44,18.4 44,11.3 51.9,11.3 51.9,18.4 55.7,18.4 55.7,1.4 
					51.9,1.4 				"/>
				<path class="st6" d="M132.8,2.3c-0.8,0.8-0.8,2-0.8,2.6v13.4h3.7v-5.4h7.9v5.4h3.7v-17h-11.6C134.6,1.4,133.6,1.5,132.8,2.3z
					 M136.6,4.7h6.9v4.9h-7.9v-4c0-0.2,0-0.6,0.1-0.8C136,4.7,136.3,4.7,136.6,4.7z"/>
				<path class="st6" d="M106.4,1.4H94.8v17h3.7V4.7h7c0.3,0,0.6,0,0.8,0.2c0.2,0.2,0.1,0.6,0.2,0.8v12.7h3.7V5
					c0-0.7-0.1-1.8-0.8-2.6C108.6,1.5,107.6,1.4,106.4,1.4z"/>
				<path class="st6" d="M87.8,14.1c0,0.2,0,0.5-0.1,0.8C87.5,15,87.2,15,86.9,15h-7V1.4h-3.7v17h11.6c1.1,0,2.1-0.2,2.9-1
					c0.8-0.8,0.8-2,0.8-2.6V1.4h-3.7C87.8,1.4,87.8,14.1,87.8,14.1z"/>
				<path class="st6" d="M128.9,5c0-0.7-0.1-1.8-0.8-2.6c-0.8-0.8-1.8-1-2.9-1h-7.9h-3.7v17h11.6c1.1,0,2.1-0.2,2.9-1s0.8-2,0.8-2.6
					L128.9,5L128.9,5z M125.2,14.1c0,0.2,0,0.5-0.1,0.8c-0.2,0.2-0.5,0.2-0.8,0.2h-7V4.7h7c0.3,0,0.6,0,0.8,0.2
					c0.2,0.2,0.1,0.6,0.1,0.8V14.1z"/>
				<polygon class="st6" points="65.9,8.8 61.4,1.4 57,1.4 63.9,12.1 63.9,18.4 67.9,18.4 67.9,12.1 74.8,1.4 70.4,1.4 				"/>
				<rect x="151" y="1.4" class="st6" width="4" height="17"/>
			</g>
			<g>
				<path class="st6" d="M95.5,24.7l-0.7-0.6l-0.7,0.7l-1.4-1.4V23c0,0,0,0,0.1,0h0.6c0,0,0.1,0,0.1,0v0.6h1V23
					c0-0.7-0.4-0.9-0.8-0.9h-1.1c-0.5,0-0.8,0.3-0.8,0.8v0.4c0,0.3,0.1,0.5,0.3,0.8l0,0l-0.5,0.4c-0.3,0.2-0.4,0.5-0.4,0.8v0.5
					c0,0.8,0.5,1,0.9,1h1c0.3,0,0.6-0.1,0.8-0.3l0.2-0.3l0.6,0.6h1.3l-1.3-1.3L95.5,24.7z M93.2,25.8c-0.1,0-0.1,0.1-0.2,0.1h-0.7
					c-0.1,0-0.1,0-0.1-0.1v-0.4c0-0.1,0-0.1,0.1-0.2l0.4-0.3l0.7,0.7L93.2,25.8z"/>
				<rect x="55.1" y="22.1" class="st6" width="1" height="4.7"/>
				<rect x="76.6" y="22.1" class="st6" width="1" height="4.7"/>
				<polygon class="st6" points="48.2,25.3 46,22.1 45,22.1 45,26.8 46,26.8 46,23.5 48.1,26.8 49.1,26.8 49.1,22.1 48.2,22.1 				
					"/>
				<polygon class="st6" points="60.1,25.3 58,22.1 56.9,22.1 56.9,26.8 57.9,26.8 57.9,23.5 60.1,26.8 61.1,26.8 61.1,22.1 
					60.1,22.1 				"/>
				<polygon class="st6" points="81.7,25.3 79.6,22.1 78.5,22.1 78.5,26.8 79.5,26.8 79.5,23.5 81.6,26.8 82.7,26.8 82.7,22.1 
					81.7,22.1 				"/>
				<polygon class="st6" points="40.3,22.1 40.3,23 40.3,25.9 40.3,26.8 41.3,26.8 44.1,26.8 44.1,25.9 41.3,25.9 41.3,24.9 
					43.8,24.9 43.8,24 41.3,24 41.3,23 44.1,23 44.1,22.1 41.3,22.1 				"/>
				<polygon class="st6" points="61.9,22.1 61.9,23 61.9,25.9 61.9,26.8 63,26.8 65.8,26.8 65.8,25.9 63,25.9 63,24.9 65.4,24.9 
					65.4,24 63,24 63,23 65.8,23 65.8,22.1 63,22.1 				"/>
				<polygon class="st6" points="66.6,22.1 66.6,23 66.6,25.9 66.6,26.8 67.7,26.8 70.5,26.8 70.5,25.9 67.7,25.9 67.7,24.9 
					70.1,24.9 70.1,24 67.7,24 67.7,23 70.5,23 70.5,22.1 67.7,22.1 				"/>
				<path class="st6" d="M52,24.8h1.2v0.7c0,0.2-0.1,0.3-0.3,0.3h-1.7c-0.2,0-0.3-0.1-0.3-0.3v-2.3c0-0.2,0.1-0.3,0.3-0.3H54v-0.9
					h-3c-0.7,0-1,0.4-1,1v2.6c0,0.7,0.3,1,1,1h2.2c0.7,0,1-0.4,1-1V24H52L52,24.8L52,24.8z"/>
				<path class="st6" d="M85.6,24.8h1.2v0.7c0,0.2-0.1,0.3-0.3,0.3h-1.7c-0.2,0-0.3-0.1-0.3-0.3v-2.3c0-0.2,0.1-0.3,0.3-0.3h2.8
					v-0.9h-3c-0.7,0-1,0.4-1,1v2.6c0,0.7,0.3,1,1,1h2.2c0.7,0,1-0.4,1-1V24h-2.2L85.6,24.8L85.6,24.8z"/>
				<path class="st6" d="M75.4,24.3v-1.1c0-0.7-0.3-1-1-1h-3.1v4.7h1v-1.5h1.4l0.9,1.5h1.1l-1-1.5C75.2,25.1,75.4,24.8,75.4,24.3z
					 M72.4,23h1.8c0.2,0,0.3,0.1,0.3,0.3v0.9c0,0.2-0.1,0.3-0.3,0.3h-1.8L72.4,23L72.4,23z"/>
				<rect x="143.8" y="22.1" class="st6" width="1" height="4.7"/>
				<polygon class="st6" points="112.2,25.3 110,22.1 109,22.1 109,26.8 109.9,26.8 109.9,23.5 112.1,26.8 113.1,26.8 113.1,22.1 
					112.2,22.1 				"/>
				<path class="st6" d="M99.2,23.1v2.6c0,0.7,0.3,1,1,1h2.8v-0.9h-2.5c-0.2,0-0.3-0.1-0.3-0.3v-2.3c0-0.2,0.1-0.3,0.3-0.3h2.5v-0.9
					h-2.8C99.5,22.1,99.2,22.4,99.2,23.1z"/>
				<path class="st6" d="M134.1,23.1v2.6c0,0.7,0.3,1,1,1h2.8v-0.9h-2.5c-0.2,0-0.3-0.1-0.3-0.3v-2.3c0-0.2,0.1-0.3,0.3-0.3h2.5
					v-0.9h-2.8C134.4,22.1,134.1,22.4,134.1,23.1z"/>
				<path class="st6" d="M107.1,22.1h-2.2c-0.7,0-1,0.4-1,1v2.6c0,0.7,0.3,1,1,1h2.2c0.7,0,1-0.4,1-1v-2.6
					C108.1,22.4,107.8,22.1,107.1,22.1z M107.1,25.6c0,0.2-0.1,0.3-0.3,0.3h-1.7c-0.2,0-0.3-0.1-0.3-0.3v-2.3c0-0.2,0.1-0.3,0.3-0.3
					h1.7c0.2,0,0.3,0.1,0.3,0.3L107.1,25.6L107.1,25.6z"/>
				<polygon class="st6" points="154,22.1 154,25.3 151.9,22.1 150.8,22.1 150.8,26.8 151.8,26.8 151.8,23.5 153.9,26.8 155,26.8 
					155,22.1 				"/>
				<path class="st6" d="M149,22.1h-2.2c-0.7,0-1,0.4-1,1v2.6c0,0.7,0.4,1,1,1h2.2c0.7,0,1-0.4,1-1v-2.6
					C150,22.4,149.7,22.1,149,22.1z M149,25.6c0,0.2-0.1,0.3-0.3,0.3H147c-0.2,0-0.3-0.1-0.3-0.3v-2.3c0-0.2,0.1-0.3,0.3-0.3h1.7
					c0.2,0,0.3,0.1,0.3,0.3L149,25.6L149,25.6z"/>
				<path class="st6" d="M128.2,24.3v-1.1c0-0.7-0.3-1-1-1h-3.1v4.7h1v-1.5h1.4l0.9,1.5h1.1l-1-1.5C128,25.1,128.2,24.8,128.2,24.3z
					 M125.1,23h1.8c0.2,0,0.3,0.1,0.3,0.3v0.9c0,0.2-0.1,0.3-0.3,0.3h-1.8L125.1,23L125.1,23z"/>
				<path class="st6" d="M117.2,24h-1.9c-0.2,0-0.3-0.1-0.3-0.3v-0.5c0-0.2,0.1-0.3,0.3-0.3h2.7v-0.9H115c-0.7,0-1,0.4-1,1v0.8
					c0,0.6,0.3,1,1,1h1.9c0.2,0,0.3,0.1,0.3,0.3v0.5c0,0.2-0.1,0.3-0.3,0.3h-2.7v0.9h3c0.7,0,1-0.4,1-1v-0.8
					C118.2,24.3,117.9,24,117.2,24z"/>
				<polygon class="st6" points="119,22.1 119,23 120.6,23 120.6,26.8 121.1,26.8 121.7,26.8 121.7,23 123.3,23 123.3,22.1 
					121.1,22.1 				"/>
				<polygon class="st6" points="138.8,22.1 138.8,23 140.4,23 140.4,26.8 140.9,26.8 141.4,26.8 141.4,23 143,23 143,22.1 
					140.9,22.1 				"/>
				<path class="st6" d="M132.2,25.6c0,0.2-0.1,0.3-0.3,0.3h-1.6c-0.2,0-0.3-0.1-0.3-0.3v-3.5h-1v3.6c0,0.7,0.3,1,1,1h2.1
					c0.7,0,1-0.3,1-1v-3.6h-1L132.2,25.6L132.2,25.6z"/>
			</g>
		</g>
	</g>
</g>
</svg>
