<?xml version="1.0" encoding="utf-8"?>
<!-- Generator: Adobe Illustrator 22.0.1, SVG Export Plug-In . SVG Version: 6.00 Build 0)  -->
<svg version="1.1" id="Capa_1" xmlns="http://www.w3.org/2000/svg" xmlns:xlink="http://www.w3.org/1999/xlink" x="0px" y="0px"
	 viewBox="0 0 500 500" style="enable-background:new 0 0 500 500;" xml:space="preserve">
<style type="text/css">
	.st0{fill:#281E13;}
</style>
<g>
	<g>
		<path class="st0" d="M485.4,54.3h-66.2C412.5,23.3,387.3,0,357.4,0s-55.1,23.3-61.7,54.3h-91.3C197.8,23.3,172.6,0,142.7,0
			S87.5,23.3,80.9,54.3H14.6C6.5,54.3,0,61.6,0,70.7v413c0,9,6.5,16.3,14.6,16.3h470.7c8.1,0,14.6-7.3,14.6-16.3v-413
			C500,61.6,493.5,54.3,485.4,54.3z M357.4,32.6c13.6,0,25.4,8.9,30.9,21.7h-61.7C332,41.5,343.8,32.6,357.4,32.6z M142.6,32.6
			c13.6,0,25.4,8.9,30.9,21.7h-61.7C117.2,41.5,129,32.6,142.6,32.6z M470.7,467.4H29.3V87h51.6c6.6,31.1,31.8,54.3,61.7,54.3
			c8.1,0,14.6-7.3,14.6-16.3s-6.5-16.3-14.6-16.3c-13.6,0-25.4-8.9-30.9-21.7h184c6.6,31.1,31.8,54.3,61.7,54.3
			c8.1,0,14.6-7.3,14.6-16.3s-6.5-16.3-14.6-16.3c-13.6,0-25.4-8.9-30.9-21.7h144.1V467.4z"/>
	</g>
</g>
<g>
	<g>
		<path class="st0" d="M439,196.7H61c-8.3,0-15,6.7-15,15v226c0,8.3,6.7,15,15,15h378c8.3,0,15-6.7,15-15v-226
			C454,203.4,447.3,196.7,439,196.7z M139.5,422.7H76v-45.3h63.5V422.7z M139.5,347.4H76v-45.3h63.5V347.4z M139.5,272H76v-45.3
			h63.5V272z M234,422.7h-64.5v-45.3H234V422.7z M234,347.4h-64.5v-45.3H234V347.4z M234,272h-64.5v-45.3H234V272z M328.5,422.7H264
			v-45.3h64.5V422.7z M328.5,347.4H264v-45.3h64.5V347.4z M328.5,272H264v-45.3h64.5V272z M424,422.7h-65.5v-45.3H424V422.7z
			 M424,347.4h-65.5v-45.3H424V347.4z M424,272h-65.5v-45.3H424V272z"/>
	</g>
</g>
</svg>
