<?xml version="1.0" encoding="utf-8"?>
<!-- Generator: Adobe Illustrator 22.0.1, SVG Export Plug-In . SVG Version: 6.00 Build 0)  -->
<svg version="1.1" id="Capa_1" xmlns="http://www.w3.org/2000/svg" xmlns:xlink="http://www.w3.org/1999/xlink" x="0px" y="0px"
	 viewBox="0 0 500 500" style="enable-background:new 0 0 500 500;" xml:space="preserve">
<style type="text/css">
	.st0{fill:#281E13;}
</style>
<g>
	<g>
		<path class="st0" d="M426.8,323.2c-27.2-27.2-59.7-47.4-95-59.6c37.9-26.1,62.8-69.7,62.8-119.1C394.5,64.8,329.7,0,250,0
			S105.5,64.8,105.5,144.5c0,49.3,24.9,93.1,62.8,119.1c-35.4,12.2-67.8,32.3-95,59.6C26,370.4,0,433.2,0,500h39.1
			c0-116.3,94.6-210.9,210.9-210.9S460.9,383.7,460.9,500H500C500,433.2,474,370.4,426.8,323.2z M250,250
			c-58.2,0-105.5-47.3-105.5-105.5S191.8,39.1,250,39.1s105.5,47.3,105.5,105.5S308.2,250,250,250z"/>
	</g>
</g>
</svg>
