<?xml version="1.0" encoding="utf-8"?>
<!-- Generator: Adobe Illustrator 22.0.1, SVG Export Plug-In . SVG Version: 6.00 Build 0)  -->
<svg version="1.1" id="레이어_1" xmlns="http://www.w3.org/2000/svg" xmlns:xlink="http://www.w3.org/1999/xlink" x="0px"
	 y="0px" viewBox="0 0 114 114" style="enable-background:new 0 0 114 114;" xml:space="preserve">
<style type="text/css">
	.st0{fill:#FFFFFF;}
</style>
<g id="레이어_1_1_">
	<path class="st0" d="M111.7,32.9c-10.7,0-22.8,10.5-22.8,10.5c-6.4,4.3-15.7,19.7-15.7,19.7c-1.8-4-6.8-8-6.8-8
		c9.7-17.6,17-20.2,17-20.2c5.2-2.8-0.3-1.8-0.3-1.8c-13.2,1.4-24.6,18-24.6,18c-2.1-2.5-9.5-2.3-9.5-2.3c-3.8-11.4-28.2-2-28.2-2
		c-2.1-9.5,16.4-15.1,16.4-15.1c30.7-10.3,58.9-3.1,58.9-3.1c3.7-0.3,0.4-1.3,0.4-1.3c-36-9-58.5-0.8-58.5-0.8
		c-22.8,8.7-19.3,21.7-19.3,21.7C6.9,52.9,1.3,69,1.3,69c-5,20.8,16.5,20.3,16.5,20.3c29.3-0.8,45.6-30,45.6-30
		c4,3,6.1,10.4,6.1,10.4c-0.9,1.5-3.4,7.8-3.4,7.8c-3.3,5.9-0.6,8-0.6,8l6.8,4.9c1.9,1.4,2-0.6,2-0.6c15.1-50.8,35.3-53.6,38.1-55.4
		S111.7,32.9,111.7,32.9z M47.9,65.7c0,0-11.6,16.9-28.1,20.2c0,0-12.1,2.3-15.1-3.9c0,0-5.1-8.6,5.5-20.8c0,0,9.6-10.9,19.7-13.6
		c0,0,14.4-5.6,17.7,1.1c0,0-10.3-1.8-21.9,5.5c0,0-8.2,4.6-11.7,13.1c0,0-2.6,4.9,0.5,9.2c0,0,3.7,3.4,11.7,0.8
		c0,0,11.1-5.4,14.5-10.3c0,0,8.3-8.1,8.6-16.7c0,0,0.1,0,0.3,0.1c1.2,0.2,5.8,1.1,7.4,3.1C57,53.5,48.1,64.8,47.9,65.7z M47.5,50.3
		c-0.1,6.4-12,16-12,16c-16.7,14.9-20.2,9.1-20.2,9.1s-5.8-4.9,11.8-17.2C40.7,48.7,47.5,50.3,47.5,50.3z"/>
</g>
<g id="레이어_2_1_">
</g>
</svg>
