<?xml version="1.0" encoding="utf-8"?>
<!-- Generator: Adobe Illustrator 22.0.1, SVG Export Plug-In . SVG Version: 6.00 Build 0)  -->
<svg version="1.1" id="레이어_1" xmlns="http://www.w3.org/2000/svg" xmlns:xlink="http://www.w3.org/1999/xlink" x="0px"
	 y="0px" viewBox="0 0 1000 598.5" style="enable-background:new 0 0 1000 598.5;" xml:space="preserve">
<style type="text/css">
	.st0{opacity:0.1;}
	.st1{fill:#FFFFFF;}
</style>
<g id="레이어_1_1_" class="st0">
	<path class="st1" d="M985.3,85.6c-94.6,0-201.6,92.9-201.6,92.9C727.3,216.7,645,353.1,645,353.1c-15.9-35.3-60-70.5-60-70.5
		c85.8-155.8,150.5-178.7,150.5-178.7c45.8-24.7-2.9-15.9-2.9-15.9c-117,12.3-217.5,159.3-217.5,159.3
		C496.3,225,431,226.7,431,226.7c-33.5-101.1-249.2-17.6-249.2-17.6c-19.4-84.1,144.6-134,144.6-134C598-16.1,847.8,47.4,847.8,47.4
		c32.9-2.9,3.5-11.8,3.5-11.8c-318.6-79.4-517.9-7.1-517.9-7.1c-201.6,77-171.1,192.2-171.1,192.2c-104.6,41.7-154,184-154,184
		c-44.1,184.6,146.4,179.9,146.4,179.9C414,577.6,558,319,558,319c35.3,26.5,54.1,92.3,54.1,92.3c-8.2,13.5-30,68.8-30,68.8
		c-29.4,52.3-5.3,70.5-5.3,70.5l60,43.5c17,12.3,17.6-5.3,17.6-5.3C787.8,139.1,966.5,114.4,991.2,98.6
		C1016.5,83.3,985.3,85.6,985.3,85.6z M421,376c0,0-102.9,149.3-248.6,178.7c0,0-107,20.6-133.4-34.7c0,0-45.3-75.8,48.8-184
		c0,0,85.2-96.4,174.6-120.5c0,0,127.6-49.4,156.4,10c0,0-91.1-15.9-194,48.8c0,0-72.3,40.6-103.5,115.8c0,0-22.9,43.5,4.7,81.1
		c0,0,32.9,30,103.5,7.1c0,0,98.2-47.6,128.1-91.1c0,0,73.5-71.7,75.8-147.5c0,0,1.2,0,2.9,1.2c10.6,1.8,51.1,10,65.2,27.6
		C501.6,267.9,422.8,368.4,421,376z M417.5,239.6c-1.2,56.4-106.4,141.7-106.4,141.7C163.6,513,132.4,461.8,132.4,461.8
		S81.3,418.3,237,309.6C357,225.5,417.5,239.6,417.5,239.6z"/>
</g>
</svg>
