<?xml version="1.0" encoding="utf-8"?>
<!-- Generator: Adobe Illustrator 22.0.1, SVG Export Plug-In . SVG Version: 6.00 Build 0)  -->
<svg version="1.1" id="레이어_1" xmlns="http://www.w3.org/2000/svg" xmlns:xlink="http://www.w3.org/1999/xlink" x="0px"
	 y="0px" viewBox="0 0 282.8 170" style="enable-background:new 0 0 282.8 170;" xml:space="preserve">
<style type="text/css">
	.st0{opacity:0.2;}
	.st1{fill:#FFFFFF;}
</style>
<g id="레이어_1_1_" class="st0">
	<path class="st1" d="M278.3,24.7c-26.8,0-57,26.3-57,26.3c-16,10.8-39.3,49.4-39.3,49.4c-4.5-10-17-20-17-20
		c24.3-44.1,42.6-50.6,42.6-50.6c13-7-0.8-4.5-0.8-4.5c-33.1,3.5-61.5,45.1-61.5,45.1c-5.3-6.3-23.8-5.8-23.8-5.8
		C112,36,51,59.6,51,59.6c-5.5-23.8,40.9-37.9,40.9-37.9c76.8-25.8,147.5-7.8,147.5-7.8c9.3-0.8,1-3.3,1-3.3
		c-90.1-22.5-146.5-2-146.5-2c-57,21.8-48.4,54.4-48.4,54.4C15.9,74.7,1.9,115,1.9,115c-12.5,52.2,41.4,50.9,41.4,50.9
		c73.3-2,114.1-75.2,114.1-75.2c10,7.5,15.3,26.1,15.3,26.1c-2.3,3.8-8.5,19.5-8.5,19.5c-8.3,14.8-1.5,20-1.5,20l17,12.3
		c4.8,3.5,5-1.5,5-1.5C222.4,39.8,273,32.8,280,28.3C287.1,24,278.3,24.7,278.3,24.7z M118.7,106.8c0,0-29.1,42.2-70.4,50.6
		c0,0-30.3,5.8-37.8-9.8c0,0-12.8-21.5,13.8-52.1c0,0,24.1-27.3,49.4-34.1c0,0,36.1-14,44.2,2.8c0,0-25.8-4.5-54.9,13.8
		c0,0-20.5,11.5-29.3,32.8c0,0-6.5,12.3,1.3,23c0,0,9.3,8.5,29.3,2c0,0,27.8-13.5,36.3-25.8c0,0,20.8-20.3,21.5-41.7
		c0,0,0.3,0,0.8,0.3c3,0.5,14.5,2.8,18.5,7.8C141.4,76.2,119.2,104.7,118.7,106.8z M117.7,68.2c-0.3,16-30.1,40.1-30.1,40.1
		C45.8,145.6,37,131.1,37,131.1S22.5,118.8,66.6,88C100.5,64.2,117.7,68.2,117.7,68.2z"/>
</g>
</svg>
