<?xml version="1.0" encoding="utf-8"?>
<!-- Generator: Adobe Illustrator 22.0.1, SVG Export Plug-In . SVG Version: 6.00 Build 0)  -->
<svg version="1.1" id="레이어_1" xmlns="http://www.w3.org/2000/svg" xmlns:xlink="http://www.w3.org/1999/xlink" x="0px"
	 y="0px" viewBox="0 0 114 114" style="enable-background:new 0 0 114 114;" xml:space="preserve">
<style type="text/css">
	.st0{fill:none;}
	.st1{fill:#E4D0AD;}
</style>
<rect class="st0" width="114" height="114"/>
<g>
	<g>
		<path class="st1" d="M14,111C14.4,74,13.6,37,14.5,0c8.6,0.3,17.2,0.2,25.7,0.3c-0.3,13.8,0.2,27.7-0.3,41.5
			c12.6-12.6,34.8-12.1,47.2,0.4c17.2,16.5,16.6,48-1.8,63.3c-12.6,10.9-34.3,11.5-45.2-2.2c0.1,2,0.1,5.9,0.2,7.8
			C31.5,111.3,22.7,111.4,14,111z M49.3,57.3c-13,4.6-13.7,25.7-1,31.2c10.5,5.6,25.1-3,24.1-15.2C73.5,61.4,60.1,52.3,49.3,57.3z"
			/>
	</g>
</g>
</svg>
